<svg xmlns="http://www.w3.org/2000/svg" x="0px" y="0px" width="64px" height="64px" viewBox="0 0 24 24"><path d="M19.5 17.5L20.8889 21.7L20.5 22L18 22L15.5001 22L15.1112 21.7L16.5 17.5" stroke="#d4af37" stroke-width="2" fill="none"></path><path d="M18 18C19.6569 18 21 16.6569 21 15C21 13.3431 19.6569 12 18 12C16.3431 12 15 13.3431 15 15C15 16.6569 16.3431 18 18 18Z" stroke="#d4af37" stroke-width="2" stroke-miterlimit="10" stroke-linecap="square" fill="none"></path><path d="M21 9.80371C20.3927 9.45235 19.7181 9.20457 19 9.08398V3H5V21H12.1855L11.5244 23H3V1H21V9.80371Z" fill="#d4af37" data-color="color-2"></path><path d="M8 7H16" stroke="#d4af37" stroke-width="2" stroke-linecap="square" fill="none"></path><path d="M8 11H11" stroke="#d4af37" stroke-width="2" stroke-linecap="square" fill="none"></path></svg>
