<svg xmlns="http://www.w3.org/2000/svg" x="0px" y="0px" width="64px" height="64px" viewBox="0 0 24 24"><path d="M11.5 19C9.56701 19 8 15.1944 8 10.5C8 5.80558 9.56701 2 11.5 2C13.3639 2 14.8875 5.53831 14.994 10" stroke="#d4af37" stroke-width="2" stroke-miterlimit="10" data-color="color-2" fill="none"></path><path d="M20 10H3" stroke="#d4af37" stroke-width="2" data-color="color-2" fill="none"></path><path d="M14.5 14.5L22 16.4999L21.6172 17.5207C20.9074 19.4137 19.4137 20.9073 17.5207 21.6172L16.5 21.9999L14.5 14.5Z" stroke="#d4af37" stroke-width="2" stroke-miterlimit="10" stroke-linecap="square" fill="none"></path><path d="M11.5 1C16.7467 1 21 5.25329 21 10.5C21 11.3776 20.8778 12.2278 20.6543 13.0361L18.7217 12.5205C18.9009 11.8781 19 11.2012 19 10.5C19 6.35786 15.6421 3 11.5 3C7.35787 3 4 6.35786 4 10.5C4 14.6421 7.35787 18 11.5 18C11.7761 18 12.0484 17.984 12.3164 17.9551L12.8359 19.9043C12.399 19.9659 11.9531 20 11.5 20C6.2533 20 2 15.7467 2 10.5C2 5.25329 6.2533 1 11.5 1Z" fill="#d4af37"></path></svg>
