<svg xmlns="http://www.w3.org/2000/svg" x="0px" y="0px" width="64px" height="64px" viewBox="0 0 24 24"><path d="M22 12C22 6.47715 17.5228 2 12 2C8.72836 2 5.82368 3.57111 3.99927 6H3L2 3" stroke="#d4af37" stroke-width="2" stroke-miterlimit="10" stroke-linecap="square" data-color="color-2" fill="none"></path><path d="M1.99927 12C1.99927 17.5228 6.47642 22 11.9993 22C15.2709 22 18.1756 20.4289 20 18H20.9993L21.9993 21" stroke="#d4af37" stroke-width="2" stroke-miterlimit="10" stroke-linecap="square" data-color="color-2" fill="none"></path><path d="M12 17.5V6.5" stroke="#d4af37" stroke-linecap="square" fill="none"></path><path d="M14 8H11C9.89543 8 9 8.89543 9 10C9 11.1046 9.89543 12 11 12H13C14.1046 12 15 12.8954 15 14C15 15.1046 14.1046 16 13 16H10" stroke="#d4af37" stroke-width="2" stroke-miterlimit="10" stroke-linecap="square" fill="none"></path></svg>
